<svg class="icon" viewBox="0 0 1024 1024" version="1.1" xmlns="http://www.w3.org/2000/svg" xmlns:xlink="http://www.w3.org/1999/xlink" width="200" height="200"><path d="M599.466667 488.533333h-140.8c-32 42.666667-68.266667 76.8-108.8 102.4 29.866667 2.133333 55.466667 2.133333 78.933333 2.133334h256c-27.733333-19.2-55.466667-55.466667-85.333333-104.533334z" /><path d="M938.666667 0H85.333333C38.4 0 0 38.4 0 85.333333v853.333334c0 46.933333 38.4 85.333333 85.333333 85.333333h853.333334c46.933333 0 85.333333-38.4 85.333333-85.333333V85.333333c0-46.933333-38.4-85.333333-85.333333-85.333333zM695.466667 166.4c14.933333 10.666667 32 21.333333 57.6 36.266667-12.8 10.666667-25.6 23.466667-38.4 42.666666-14.933333 17.066667-29.866667 38.4-49.066667 64-17.066667-14.933333-32-25.6-51.2-32 44.8-53.333333 72.533333-89.6 81.066667-110.933333z m-369.066667 12.8c25.6 32 49.066667 64 68.266667 96-23.466667 8.533333-42.666667 17.066667-53.333334 29.866667-10.666667-21.333333-32-53.333333-66.133333-93.866667 19.2-8.533333 36.266667-19.2 51.2-32zM832 672c-44.8-12.8-87.466667-34.133333-132.266667-66.133333-4.266667 100.266667-6.4 162.133333-8.533333 183.466666-2.133333 23.466667-12.8 38.4-32 46.933334-19.2 8.533333-51.2 14.933333-93.866667 17.066666-4.266667-23.466667-12.8-49.066667-27.733333-72.533333 36.266667 6.4 61.866667 6.4 76.8-2.133333s23.466667-53.333333 23.466667-138.666667h-132.266667c-14.933333 64-42.666667 113.066667-83.2 145.066667s-87.466667 57.6-134.4 74.666666c-12.8-21.333333-29.866667-40.533333-53.333333-57.6 76.8-17.066667 128-40.533333 160-68.266666 29.866667-27.733333 46.933333-59.733333 51.2-93.866667-49.066667 0-89.6 0-117.333334 2.133333v-38.4c-32 21.333333-70.4 42.666667-117.333333 59.733334-8.533333-19.2-19.2-40.533333-36.266667-59.733334 49.066667-12.8 93.866667-29.866667 132.266667-51.2 38.4-21.333333 66.133333-44.8 83.2-66.133333H298.666667c-36.266667 0-72.533333 0-110.933334 2.133333v-53.333333c38.4 2.133333 76.8 2.133333 113.066667 2.133333h117.333333c14.933333-21.333333 23.466667-46.933333 29.866667-74.666666h-98.133333c-40.533333 0-78.933333 0-113.066667 2.133333v-53.333333c36.266667 2.133333 74.666667 2.133333 113.066667 2.133333h110.933333c10.666667-64 14.933333-117.333333 14.933333-162.133333 19.2 4.266667 44.8 8.533333 72.533334 12.8-8.533333 10.666667-14.933333 29.866667-17.066667 59.733333-4.266667 29.866667-8.533333 59.733333-14.933333 89.6h174.933333c36.266667 0 72.533333 0 108.8-2.133333v53.333333c-34.133333-2.133333-68.266667-2.133333-104.533333-2.133333h-185.6c-6.4 25.6-14.933333 51.2-23.466667 74.666666h249.6c34.133333 0 70.4 0 108.8-2.133333V490.666667c-36.266667-2.133333-72.533333-2.133333-108.8-2.133334h-64c21.333333 38.4 51.2 66.133333 85.333333 83.2 34.133333 17.066667 74.666667 29.866667 119.466667 40.533334-23.466667 17.066667-36.266667 36.266667-44.8 59.733333z"/></svg>
