<?xml version="1.0" standalone="no"?><!DOCTYPE svg PUBLIC "-//W3C//DTD SVG 1.1//EN" "http://www.w3.org/Graphics/SVG/1.1/DTD/svg11.dtd"><svg t="1630568757673" class="icon" viewBox="0 0 1024 1024" version="1.1" xmlns="http://www.w3.org/2000/svg" p-id="2297" xmlns:xlink="http://www.w3.org/1999/xlink" width="200" height="200"><defs><style type="text/css">@font-face { font-family: element-icons; src: url("chrome-extension://moombeodfomdpjnpocobemoiaemednkg/fonts/element-icons.woff") format("woff"), url("chrome-extension://moombeodfomdpjnpocobemoiaemednkg/fonts/element-icons.ttf ") format("truetype"); }
</style></defs><path d="M938.666667 0H85.333333C38.4 0 0 38.4 0 85.333333v853.333334c0 46.933333 38.4 85.333333 85.333333 85.333333h853.333334c46.933333 0 85.333333-38.4 85.333333-85.333333V85.333333c0-46.933333-38.4-85.333333-85.333333-85.333333z m-132.266667 605.866667c-49.066667-2.133333-100.266667-2.133333-160-2.133334h-179.2c14.933333 17.066667 32 27.733333 44.8 36.266667-14.933333 10.666667-68.266667 55.466667-164.266667 138.666667 132.266667-4.266667 234.666667-8.533333 305.066667-12.8-17.066667-19.2-44.8-46.933333-81.066667-78.933334 14.933333-12.8 27.733333-25.6 42.666667-38.4 27.733333 25.6 55.466667 51.2 81.066667 76.8 25.6 25.6 55.466667 55.466667 89.6 91.733334-14.933333 12.8-32 27.733333-51.2 44.8-17.066667-25.6-32-44.8-44.8-53.333334-46.933333 2.133333-119.466667 6.4-224 12.8-102.4 6.4-168.533333 12.8-200.533334 21.333334-10.666667-25.6-17.066667-46.933333-23.466666-59.733334 32-10.666667 70.4-36.266667 113.066666-76.8 44.8-40.533333 74.666667-74.666667 93.866667-100.266666h-85.333333c-53.333333 0-104.533333 0-149.333334 2.133333V554.666667c49.066667 2.133333 96 2.133333 147.2 2.133333H661.333333c49.066667 0 98.133333 0 147.2-2.133333v51.2zM341.333333 469.333333v-53.333333c25.6 2.133333 57.6 2.133333 93.866667 2.133333h132.266667c44.8 0 78.933333 0 108.8-2.133333V469.333333c-29.866667-2.133333-66.133333-2.133333-108.8-2.133333h-128c-40.533333 0-72.533333 0-98.133334 2.133333z m480 14.933334C684.8 422.4 582.4 341.333333 512 243.2c-93.866667 106.666667-196.266667 192-309.333333 256-19.2-27.733333-36.266667-44.8-51.2-51.2 74.666667-25.6 145.066667-68.266667 211.2-128 66.133333-59.733333 113.066667-115.2 136.533333-164.266667 17.066667 12.8 38.4 23.466667 64 32l-17.066667 17.066667c70.4 100.266667 174.933333 174.933333 317.866667 224-19.2 19.2-32 36.266667-42.666667 55.466667z" p-id="2298"></path></svg>