<?xml version="1.0" standalone="no"?><!DOCTYPE svg PUBLIC "-//W3C//DTD SVG 1.1//EN" "http://www.w3.org/Graphics/SVG/1.1/DTD/svg11.dtd"><svg t="1630568765663" class="icon" viewBox="0 0 1024 1024" version="1.1" xmlns="http://www.w3.org/2000/svg" p-id="2554" xmlns:xlink="http://www.w3.org/1999/xlink" width="200" height="200"><defs><style type="text/css">@font-face { font-family: element-icons; src: url("chrome-extension://moombeodfomdpjnpocobemoiaemednkg/fonts/element-icons.woff") format("woff"), url("chrome-extension://moombeodfomdpjnpocobemoiaemednkg/fonts/element-icons.ttf ") format("truetype"); }
</style></defs><path d="M938.666667 0H85.333333C38.4 0 0 38.4 0 85.333333v853.333334c0 46.933333 38.4 85.333333 85.333333 85.333333h853.333334c46.933333 0 85.333333-38.4 85.333333-85.333333V85.333333c0-46.933333-38.4-85.333333-85.333333-85.333333zM499.2 217.6h309.333333c-2.133333 34.133333-2.133333 78.933333-2.133333 134.4v98.133333c0 42.666667 0 81.066667 2.133333 119.466667H499.2c2.133333-38.4 2.133333-78.933333 2.133333-119.466667v-102.4c2.133333-51.2 0-96-2.133333-130.133333zM298.666667 864c4.266667-49.066667 6.4-87.466667 6.4-117.333333v-194.133334c-17.066667 36.266667-29.866667 64-42.666667 83.2-12.8 19.2-32 49.066667-57.6 83.2-14.933333-14.933333-32-25.6-53.333333-36.266666 29.866667-29.866667 57.6-66.133333 83.2-110.933334 25.6-44.8 44.8-87.466667 57.6-132.266666-27.733333 0-70.4 0-128 2.133333V384c57.6 2.133333 104.533333 2.133333 140.8 2.133333v-125.866666c-40.533333 6.4-78.933333 12.8-113.066667 17.066666-6.4-17.066667-12.8-36.266667-21.333333-53.333333 25.6 2.133333 70.4-2.133333 134.4-14.933333s106.666667-25.6 130.133333-38.4c14.933333 23.466667 25.6 42.666667 36.266667 53.333333-19.2 4.266667-38.4 8.533333-53.333334 12.8-17.066667 4.266667-34.133333 8.533333-57.6 12.8v138.666667c49.066667 0 85.333333 0 113.066667-2.133334v57.6c-27.733333-2.133333-66.133333-2.133333-113.066667-2.133333V533.333333c14.933333-12.8 29.866667-23.466667 38.4-32 32 46.933333 57.6 81.066667 74.666667 108.8-10.666667 6.4-27.733333 17.066667-51.2 36.266667-17.066667-34.133333-36.266667-68.266667-64-102.4V746.666667c0 29.866667 0 68.266667 2.133333 117.333333H298.666667z m251.733333-123.733333c-29.866667 40.533333-61.866667 78.933333-98.133333 119.466666-14.933333-14.933333-29.866667-27.733333-49.066667-42.666666 25.6-19.2 51.2-46.933333 78.933333-81.066667 25.6-34.133333 51.2-74.666667 74.666667-123.733333 19.2 17.066667 38.4 29.866667 53.333333 38.4-10.666667 21.333333-32 49.066667-59.733333 89.6z m264.533333 108.8c-14.933333-25.6-34.133333-59.733333-64-100.266667-27.733333-40.533333-49.066667-70.4-66.133333-87.466667 14.933333-10.666667 32-21.333333 49.066667-36.266666 17.066667 23.466667 38.4 51.2 64 83.2s49.066667 66.133333 72.533333 102.4c-21.333333 12.8-40.533333 25.6-55.466667 38.4z" p-id="2555"></path><path d="M556.8 266.666667h192v256h-192z" p-id="2556"></path></svg>