<?xml version="1.0" standalone="no"?><!DOCTYPE svg PUBLIC "-//W3C//DTD SVG 1.1//EN" "http://www.w3.org/Graphics/SVG/1.1/DTD/svg11.dtd"><svg t="1630568753744" class="icon" viewBox="0 0 1024 1024" version="1.1" xmlns="http://www.w3.org/2000/svg" p-id="2168" xmlns:xlink="http://www.w3.org/1999/xlink" width="200" height="200"><defs><style type="text/css">@font-face { font-family: element-icons; src: url("chrome-extension://moombeodfomdpjnpocobemoiaemednkg/fonts/element-icons.woff") format("woff"), url("chrome-extension://moombeodfomdpjnpocobemoiaemednkg/fonts/element-icons.ttf ") format("truetype"); }
</style></defs><path d="M469.333333 552.533333h57.6v117.333334H469.333333z" p-id="2169"></path><path d="M938.666667 0H85.333333C38.4 0 0 38.4 0 85.333333v853.333334c0 46.933333 38.4 85.333333 85.333333 85.333333h853.333334c46.933333 0 85.333333-38.4 85.333333-85.333333V85.333333c0-46.933333-38.4-85.333333-85.333333-85.333333z m-211.2 166.4c17.066667 17.066667 42.666667 44.8 72.533333 81.066667-17.066667 12.8-32 23.466667-44.8 36.266666-21.333333-32-44.8-59.733333-68.266667-81.066666 12.8-14.933333 27.733333-27.733333 40.533334-36.266667z m-505.6 83.2c34.133333 53.333333 64 100.266667 87.466666 140.8-17.066667 10.666667-36.266667 23.466667-57.6 38.4-10.666667-25.6-38.4-74.666667-83.2-145.066667 19.2-12.8 38.4-23.466667 53.333334-34.133333zM151.466667 729.6c23.466667-29.866667 44.8-64 64-102.4 19.2-38.4 36.266667-78.933333 53.333333-123.733333 17.066667 14.933333 36.266667 25.6 53.333333 36.266666-21.333333 40.533333-44.8 81.066667-66.133333 125.866667-21.333333 44.8-38.4 78.933333-49.066667 102.4-19.2-17.066667-38.4-29.866667-55.466666-38.4z m262.4-279.466667v-49.066666h160v49.066666h-160z m4.266666 57.6H576c-2.133333 23.466667-2.133333 59.733333-2.133333 108.8 0 46.933333 0 78.933333 2.133333 96h-160c2.133333-27.733333 2.133333-59.733333 2.133333-96 2.133333-38.4 2.133333-74.666667 0-108.8z m409.6 320c-17.066667 21.333333-36.266667 25.6-59.733333 12.8-23.466667-14.933333-55.466667-55.466667-96-123.733333-40.533333 51.2-85.333333 98.133333-138.666667 138.666667-14.933333-19.2-29.866667-36.266667-44.8-49.066667 51.2-23.466667 104.533333-74.666667 155.733334-149.333333-29.866667-78.933333-46.933333-183.466667-51.2-317.866667h-213.333334v174.933333c4.266667 140.8-21.333333 256-78.933333 345.6-17.066667-14.933333-36.266667-25.6-59.733333-32 34.133333-42.666667 57.6-93.866667 68.266666-157.866666s17.066667-132.266667 17.066667-209.066667c0-76.8 0-132.266667-2.133333-168.533333h264.533333c-2.133333-36.266667-4.266667-76.8-6.4-123.733334 25.6 2.133333 46.933333 2.133333 68.266667 2.133334-4.266667 17.066667-6.4 55.466667-6.4 119.466666h64c34.133333 0 72.533333 0 113.066666-2.133333V341.333333c-38.4-2.133333-74.666667-2.133333-110.933333-2.133333h-64c-2.133333 93.866667 8.533333 181.333333 32 260.266667 32-59.733333 55.466667-125.866667 72.533333-198.4 19.2 12.8 40.533333 21.333333 64 27.733333-10.666667 21.333333-25.6 57.6-49.066666 108.8-21.333333 49.066667-42.666667 93.866667-64 128 32 61.866667 55.466667 98.133333 72.533333 108.8 17.066667 10.666667 32-14.933333 42.666667-74.666667 10.666667 10.666667 27.733333 19.2 51.2 29.866667-8.533333 44.8-23.466667 76.8-40.533334 98.133333z" p-id="2170"></path></svg>